<?xml version="1.0" encoding="utf-8"?>
<!-- Generator: Adobe Illustrator 20.0.0, SVG Export Plug-In . SVG Version: 6.00 Build 0)  -->
<svg version="1.1" id="Layer_1" xmlns="http://www.w3.org/2000/svg" xmlns:xlink="http://www.w3.org/1999/xlink" x="0px" y="0px"
	 viewBox="0 0 88 88" style="enable-background:new 0 0 88 88;" xml:space="preserve">
<style type="text/css">
	.st0{fill:url(#SVGID_1_);}
	.st1{fill:url(#SVGID_2_);}
	.st2{fill:#FFFFFF;}
</style>
<g>
	<g>
		<linearGradient id="SVGID_1_" gradientUnits="userSpaceOnUse" x1="-0.6875" y1="-0.2277" x2="88.4125" y2="87.9556">
			<stop  offset="5.319149e-03" style="stop-color:#8041AB"/>
			<stop  offset="1" style="stop-color:#E2415B"/>
		</linearGradient>
		<rect class="st0" width="88" height="88"/>
		<linearGradient id="SVGID_2_" gradientUnits="userSpaceOnUse" x1="5.9194" y1="81.7646" x2="89.2889" y2="-0.913">
			<stop  offset="0" style="stop-color:#F4963D"/>
			<stop  offset="0.4681" style="stop-color:#E85747;stop-opacity:0.5319"/>
			<stop  offset="0.9947" style="stop-color:#8041AB;stop-opacity:0"/>
		</linearGradient>
		<rect class="st1" width="88" height="88"/>
	</g>
	<g>
		<path class="st2" d="M44,23.5c6.7,0,7.5,0,10.1,0.1c2.4,0.1,3.8,0.5,4.6,0.9c1.2,0.5,2,1,2.9,1.9c0.9,0.9,1.4,1.7,1.9,2.9
			c0.3,0.9,0.7,2.2,0.9,4.6c0.1,2.6,0.1,3.4,0.1,10.1s0,7.5-0.1,10.1c-0.1,2.4-0.5,3.8-0.9,4.6c-0.5,1.2-1,2-1.9,2.9
			c-0.9,0.9-1.7,1.4-2.9,1.9c-0.9,0.3-2.2,0.7-4.6,0.9c-2.6,0.1-3.4,0.1-10.1,0.1s-7.5,0-10.1-0.1c-2.4-0.1-3.8-0.5-4.6-0.9
			c-1.2-0.5-2-1-2.9-1.9c-0.9-0.9-1.4-1.7-1.9-2.9c-0.3-0.9-0.7-2.2-0.9-4.6c-0.1-2.6-0.1-3.4-0.1-10.1s0-7.5,0.1-10.1
			c0.1-2.4,0.5-3.8,0.9-4.6c0.5-1.2,1-2,1.9-2.9c0.9-0.9,1.7-1.4,2.9-1.9c0.9-0.3,2.2-0.7,4.6-0.9C36.5,23.5,37.3,23.5,44,23.5
			 M44,19c-6.8,0-7.6,0-10.3,0.2c-2.7,0.1-4.5,0.5-6.1,1.2c-1.6,0.6-3,1.5-4.4,2.9c-1.4,1.4-2.2,2.8-2.9,4.4c-0.6,1.6-1,3.4-1.2,6.1
			C19,36.4,19,37.2,19,44c0,6.8,0,7.6,0.2,10.3c0.1,2.7,0.5,4.5,1.2,6.1c0.6,1.6,1.5,3,2.9,4.4c1.4,1.4,2.8,2.2,4.4,2.9
			c1.6,0.6,3.4,1,6.1,1.2C36.4,69,37.2,69,44,69s7.6,0,10.3-0.2c2.7-0.1,4.5-0.5,6.1-1.2c1.6-0.6,3-1.5,4.4-2.9
			c1.4-1.4,2.2-2.8,2.9-4.4c0.6-1.6,1-3.4,1.2-6.1C69,51.6,69,50.8,69,44s0-7.6-0.2-10.3c-0.1-2.7-0.5-4.5-1.2-6.1
			c-0.6-1.6-1.5-3-2.9-4.4c-1.4-1.4-2.8-2.2-4.4-2.9c-1.6-0.6-3.4-1-6.1-1.2C51.6,19,50.8,19,44,19L44,19z"/>
		<path class="st2" d="M44,31.2c-7.1,0-12.8,5.7-12.8,12.8S36.9,56.8,44,56.8S56.8,51.1,56.8,44S51.1,31.2,44,31.2z M44,52.3
			c-4.6,0-8.3-3.7-8.3-8.3s3.7-8.3,8.3-8.3s8.3,3.7,8.3,8.3S48.6,52.3,44,52.3z"/>
		<circle class="st2" cx="57.3" cy="30.7" r="3"/>
	</g>
</g>
</svg>
